<svg width="17" height="17" viewBox="0 0 17 17" fill="none" xmlns="http://www.w3.org/2000/svg">
<g clip-path="url(#clip0_282_2)">
<mask id="mask0_282_2" style="mask-type:luminance" maskUnits="userSpaceOnUse" x="0" y="0" width="17" height="17">
<path d="M17 0H0V17H17V0Z" fill="white"/>
</mask>
<g mask="url(#mask0_282_2)">
<path d="M13.8086 12.8221C13.8126 13.369 13.7087 13.9113 13.5029 14.418C13.2972 14.9247 12.9936 15.3859 12.6095 15.7752C12.2254 16.1646 11.7684 16.4744 11.2645 16.687C10.7606 16.8996 10.2198 17.0108 9.67294 17.0143L8.16182 17.0253L7.79038 17.0277C7.4491 17.03 7.11185 16.9539 6.80466 16.8051C6.49748 16.6564 6.22858 16.4391 6.01872 16.1699L2.40735 11.7888L3.51451 10.7195L5.99633 12.6796L5.97291 9.22671L5.93512 3.6681L7.36013 3.65861L7.39729 9.21851L8.10113 9.21389L8.0852 6.76198L9.50943 6.75251L9.52533 9.2044L10.2291 9.1998L10.2165 7.30722L11.6415 7.29774L11.6542 9.19032L12.3596 9.18333L12.3524 7.88163L13.7763 7.87359L13.7835 9.17527L13.8078 12.8229L13.8086 12.8221ZM4.86759 3.86302C4.75547 3.50971 4.75052 3.1311 4.85339 2.77498C4.95625 2.41886 5.16231 2.1012 5.44556 1.86209C5.7288 1.62299 6.07654 1.47315 6.44486 1.4315C6.81319 1.38985 7.1856 1.45825 7.51509 1.62808C7.7817 1.76646 8.01122 1.96678 8.1844 2.21221C8.35758 2.45765 8.46936 2.74104 8.51037 3.03862C8.55137 3.33619 8.52039 3.63925 8.42004 3.92238C8.3197 4.2055 8.1529 4.46043 7.93365 4.66576L7.93999 5.37327C8.30711 5.14551 8.60736 4.8246 8.81023 4.44316C9.0131 4.06173 9.11135 3.63338 9.09499 3.20166C9.07863 2.76995 8.94824 2.35026 8.71709 1.98528C8.48593 1.62029 8.16225 1.32303 7.77895 1.1237C7.21669 0.832754 6.56348 0.771263 5.9568 0.952167C5.35011 1.13307 4.83726 1.54227 4.52616 2.09364C4.21506 2.64501 4.12998 3.29556 4.28881 3.9084C4.44765 4.52123 4.83802 5.04855 5.37778 5.37939L5.37314 4.66471C5.13842 4.44545 4.96429 4.16931 4.86759 3.86302Z" fill="white"/>
</g>
</g>
<defs>
<clipPath id="clip0_282_2">
<rect width="17" height="17" fill="white"/>
</clipPath>
</defs>
</svg>
